<svg preserveAspectRatio="none" overflow="visible" style="display: block;" width="11" height="13.9797" viewBox="0 0 11 13.9797" fill="none" xmlns="http://www.w3.org/2000/svg">
<path id="Vector" d="M10.5328 6.32654C10.2295 5.64382 9.78851 5.03104 9.2375 4.52654L8.78281 4.10936C8.76737 4.09558 8.74879 4.0858 8.72869 4.08088C8.7086 4.07597 8.6876 4.07606 8.66754 4.08115C8.64749 4.08624 8.62899 4.09617 8.61367 4.11008C8.59835 4.12399 8.58668 4.14145 8.57969 4.16092L8.37656 4.74373C8.25 5.10936 8.01719 5.48279 7.6875 5.84998C7.66563 5.87342 7.64063 5.87967 7.62344 5.88123C7.60625 5.88279 7.57969 5.87967 7.55625 5.85779C7.53437 5.83904 7.52344 5.81092 7.525 5.78279C7.58281 4.84217 7.30156 3.78123 6.68594 2.62654C6.17656 1.66717 5.46875 0.918731 4.58437 0.396856L3.93906 0.017169C3.85469 -0.032831 3.74688 0.0327939 3.75156 0.131231L3.78594 0.881231C3.80937 1.39373 3.75 1.84686 3.60938 2.22342C3.4375 2.68436 3.19063 3.11248 2.875 3.49686C2.65535 3.76399 2.4064 4.00561 2.13281 4.21717C1.47391 4.72368 0.938146 5.37269 0.565625 6.11561C0.194022 6.865 0.000453376 7.69007 0 8.52654C0 9.26404 0.145312 9.97811 0.432812 10.6515C0.710416 11.2999 1.11103 11.8884 1.6125 12.3844C2.11875 12.8844 2.70625 13.2781 3.36094 13.5515C4.03906 13.8359 4.75781 13.9797 5.5 13.9797C6.24219 13.9797 6.96094 13.8359 7.63906 13.5531C8.29214 13.2813 8.88601 12.8848 9.3875 12.3859C9.89375 11.8859 10.2906 11.3015 10.5672 10.6531C10.8543 9.98151 11.0015 9.25848 11 8.52811C11 7.76561 10.8437 7.02498 10.5328 6.32654Z" fill="white"/>
</svg>
